<?xml version="1.0" encoding="iso-8859-1"?>
<!-- Generator: Adobe Illustrator 19.0.0, SVG Export Plug-In . SVG Version: 6.00 Build 0)  -->
<svg version="1.1" id="Layer_1" xmlns="http://www.w3.org/2000/svg" xmlns:xlink="http://www.w3.org/1999/xlink" x="0px" y="0px"
	 viewBox="0 0 512 512" style="enable-background:new 0 0 512 512;" xml:space="preserve">
<path style="fill:#FF6465;" d="M255.999,276.271v91.004c0,31.879,25.843,57.723,57.723,57.723h30.621V276.271H255.999z"/>
<path style="fill:#E65A5B;" d="M255.999,329.548L255.999,329.548c10.395,0,18.851,8.457,18.851,18.851v61.546
	c10.258,9.35,23.898,15.053,38.871,15.053h30.621V276.271h-88.343V329.548z"/>
<path style="fill:#3F3F4D;" d="M86.478,144.082v74.4c0,46.452,75.897,84.108,169.522,84.108l0,0
	c25.299,0,45.808,20.509,45.808,45.808v93.657c0,34.163,27.694,61.857,61.857,61.857l0,0c34.163,0,61.857-27.694,61.857-61.857
	V144.082H86.478z"/>
<ellipse style="fill:#707287;" cx="256.002" cy="144.078" rx="169.525" ry="84.105"/>
<ellipse style="fill:#3F3F4D;" cx="212.871" cy="144.078" rx="63.122" ry="33.761"/>
<path style="fill:#AFB6C7;" d="M193.321,43.783v89.378c0,10.796,8.752,19.548,19.548,19.548l0,0
	c10.796,0,19.548-8.752,19.548-19.548V43.783C232.417,43.783,193.321,43.783,193.321,43.783z"/>
<path style="opacity:0.1;enable-background:new    ;" d="M193.321,110.631c6.15,1.239,12.697,1.911,19.548,1.911
	c6.851,0,13.397-0.672,19.548-1.911V43.783h-39.096V110.631z"/>
<path style="fill:#E65A5B;" d="M254.241,63.011c0,12.468-18.524,22.576-41.372,22.576s-41.372-10.108-41.372-22.576V30.663h82.745
	v32.348H254.241z"/>
<ellipse style="fill:#FF6465;" cx="212.871" cy="30.663" rx="41.373" ry="22.576"/>
<path style="fill:#5FBA91;" d="M352.647,100.184c0,10.399-15.448,18.829-34.506,18.829c-19.057,0-34.506-8.43-34.506-18.829V73.206
	h69.01v26.978H352.647z"/>
<ellipse style="fill:#6BD1A3;" cx="318.142" cy="73.206" rx="34.505" ry="18.829"/>
<path style="fill:#E65A5B;" d="M394.699,153.019c0,10.399-15.448,18.829-34.506,18.829c-19.057,0-34.506-8.43-34.506-18.829v-26.978
	h69.01v26.978H394.699z"/>
<ellipse style="fill:#FF6465;" cx="360.195" cy="126.039" rx="34.505" ry="18.829"/>
<path d="M363.666,512c38.567,0,69.943-31.376,69.943-69.944v-42.694c0-4.466-3.62-8.087-8.087-8.087s-8.087,3.621-8.087,8.087
	v42.694c0,29.649-24.121,53.77-53.77,53.77c-29.648,0-53.769-24.121-53.769-53.77V423.76v-75.361
	c0-29.718-24.178-53.895-53.895-53.895c-34.461,0-67.419-5.191-95.31-15.011c-4.215-1.485-8.83,0.729-10.314,4.942
	s0.73,8.83,4.942,10.314c27.39,9.644,59.251,15.07,92.595,15.828v56.699c0,28.724,18.911,54.097,45.808,62.69v12.091
	C293.72,480.623,325.098,512,363.666,512z M264.086,367.275c0-3.512,0.026-54.366-0.005-55.716
	c12.377,2.681,22.713,11.769,27.192,23.577c1.603,4.228,2.448,8.739,2.448,13.263v64.307
	C276.082,404.904,264.086,387.15,264.086,367.275z"/>
<path d="M411.053,98.52c-12.451-11.539-29.928-21.638-50.766-29.385c-2.924-13.275-20.064-22.846-42.146-22.846
	c-11.661,0-21.938,2.674-29.479,7.149c-8.667-0.818-17.483-1.312-26.335-1.472V30.663C262.328,13.183,241.064,0,212.869,0
	S163.41,13.183,163.41,30.663v32.348c0,0.709,0.047,1.408,0.116,2.103c-23.537,7.344-43.493,17.441-58.051,29.449
	c-17.72,14.617-27.085,31.741-27.085,49.529v74.392c0,22.819,15.61,44.557,43.954,61.209c1.286,0.756,2.697,1.115,4.089,1.115
	c2.773,0,5.473-1.428,6.981-3.992c2.262-3.85,0.974-8.806-2.877-11.07c-23.198-13.627-35.972-30.413-35.972-47.263v-35.31
	c10.429,11.821,23.94,20.666,37.977,27.63c16.488,8.18,35.637,14.527,56.448,18.842c0.086,0.018,0.171,0.038,0.257,0.055
	c21.917,4.551,44.379,6.577,66.752,6.577c13.394,0,26.758-0.763,39.721-2.269c4.365-0.507,7.606-4.605,7.1-8.966
	c-0.517-4.437-4.53-7.615-8.966-7.099c-12.346,1.434-25.083,2.161-37.855,2.161c-46.709,0-97.931-7.449-136.379-35.973
	c-0.032-0.024-0.065-0.049-0.097-0.072c-11.212-8.336-21.903-19.677-24.417-33.926c-0.353-1.997-0.54-4.022-0.54-6.05
	c0-25.84,29.125-50.244,76.396-64.342c3.656,3.617,8.508,6.677,14.273,8.998v16.656c-26.69,6.328-43.573,21.095-43.573,38.687
	c0,23.466,31.278,41.848,71.208,41.848s71.208-18.381,71.208-41.848c0-17.592-16.882-32.359-43.573-38.687V88.742
	c0.043-0.017,0.084-0.036,0.127-0.053c3.618-1.462,7.122-3.321,10.268-5.636c5.004-3.681,9.28-8.785,10.807-14.944
	c4.818,0.082,9.627,0.267,14.403,0.555c-0.355-0.022-0.561,4.115-0.561,4.541v26.979c0,15.231,18.042,26.737,42.052,26.908v25.927
	c0,15.344,18.31,26.916,42.593,26.916c24.282,0,42.592-11.571,42.592-26.916v-26.979c0-15.229-18.042-26.736-42.052-26.907V86.656
	c35.725,14.579,56.701,35.603,56.701,57.426c0,1.931-0.178,3.869-0.499,5.773c-4.47,26.526-39.423,50.717-91.61,62.706
	c-4.353,1-7.072,5.34-6.072,9.691c1.001,4.353,5.341,7.073,9.691,6.072c13.463-3.09,26.747-7.131,39.504-12.449
	c18.092-7.541,35.898-17.789,48.984-32.64v183.779c0,4.466,3.62,8.087,8.087,8.087c4.467,0,8.087-3.621,8.087-8.087
	c0,0,0-222.922,0-222.932C433.608,127.951,425.808,112.196,411.053,98.52z M267.902,144.082c0,12.143-22.602,25.674-55.034,25.674
	s-55.034-13.53-55.034-25.674c0-8.674,11.075-17.266,27.399-21.965v11.044c0,15.238,12.397,27.635,27.635,27.635
	c15.238,0,27.635-12.397,27.635-27.635v-11.044C256.829,126.816,267.902,135.409,267.902,144.082z M201.408,133.161v-21.179V92.905
	c2.562,0.349,5.211,0.583,7.934,0.691c1.175,0.046,2.351,0.079,3.527,0.079c3.829,0,7.666-0.243,11.461-0.76v19.067v21.179
	c0,6.32-5.142,11.461-11.461,11.461C206.55,144.621,201.408,139.479,201.408,133.161z M246.154,63.011
	c0,5.35-6.506,8.688-10.715,10.429c-6.288,2.603-13.346,3.753-20.108,4.011c-0.097,0.003-0.192,0.009-0.289,0.012
	c-8.687,0.283-17.805-0.953-25.727-4.678c-3.238-1.523-6.692-3.584-8.678-6.663c-0.689-1.077-1.053-2.132-1.053-3.112v-9.282
	c0.313,0.173,0.638,0.336,0.959,0.504c9.158,4.782,19.559,6.747,29.815,7.054c0.837,0.025,1.673,0.038,2.511,0.038
	c10.416,0,21.097-1.726,30.569-6.209c0.919-0.435,1.826-0.897,2.716-1.387C246.154,53.729,246.154,63.009,246.154,63.011z
	 M246.116,31.224c-0.78,5.874-13.564,13.928-33.247,13.928s-32.468-8.054-33.247-13.928c-0.025-0.19-0.038-0.376-0.038-0.562
	c0-5.908,12.966-14.489,33.285-14.489s33.285,8.581,33.285,14.489C246.154,30.847,246.141,31.035,246.116,31.224z M291.927,72.574
	c0.432-2.078,2.752-3.848,4.582-4.987c2.039-1.268,4.296-2.146,6.571-2.889c4.848-1.583,9.973-2.235,15.061-2.235
	c7.049,0,14.571,0.932,20.776,4.615c2.114,1.255,4.858,2.814,5.47,5.413c0.725,3.074-3.289,5.553-5.5,6.772
	c-5.425,2.99-11.761,4.297-17.906,4.609c-0.925,0.046-1.87,0.075-2.84,0.075c-11.808,0-20.29-3.61-24.122-7.045
	C292.774,75.786,291.553,74.372,291.927,72.574z M318.142,110.926c-16.389,0-26.419-6.955-26.419-10.742v-5.558
	c0.065,0.031,0.136,0.058,0.202,0.089c8.088,3.913,17.286,5.406,26.217,5.406c0.014,0,0.027-0.001,0.04-0.001
	c8.937-0.005,18.063-1.52,26.171-5.403c0.067-0.032,0.14-0.059,0.207-0.092v5.558c0,0.237-0.043,0.476-0.112,0.712
	c-8.027,1.901-14.744,5.246-19.452,9.595C322.755,110.779,320.46,110.926,318.142,110.926z M386.612,153.019
	c0,3.787-10.03,10.742-26.418,10.742c-16.389,0-26.419-6.955-26.419-10.742v-5.558c0.066,0.031,0.138,0.059,0.205,0.091
	c8.108,3.86,17.254,5.404,26.242,5.404c8.947-0.004,18.066-1.516,26.182-5.403c0.067-0.032,0.14-0.059,0.207-0.092V153.019z
	 M386.612,126.041c-0.001,3.905-6.575,6.718-9.531,7.859c-5.354,2.068-11.171,2.882-16.888,2.882
	c-11.808,0-20.289-3.61-24.122-7.045c-2.449-2.194-2.967-4.496-0.471-6.973c6.061-6.012,16.481-7.465,24.593-7.465
	C376.582,115.299,386.611,122.254,386.612,126.041z"/>
<g>
</g>
<g>
</g>
<g>
</g>
<g>
</g>
<g>
</g>
<g>
</g>
<g>
</g>
<g>
</g>
<g>
</g>
<g>
</g>
<g>
</g>
<g>
</g>
<g>
</g>
<g>
</g>
<g>
</g>
</svg>
